<svg width="72" height="60" viewBox="0 0 72 60" fill="none" xmlns="http://www.w3.org/2000/svg">
<path d="M71.3996 56.9999V54.7225C71.3996 53.1035 70.0825 51.7862 68.4632 51.7862H66.1299V17.9046C66.1299 15.9782 64.5627 14.4109 62.6362 14.4109H57.5199C57.267 14.4109 57.062 14.6159 57.062 14.8689C57.062 15.1218 57.267 15.3268 57.5199 15.3268H62.6362C64.0575 15.3268 65.2139 16.4831 65.2139 17.9044V51.7859H49.7754C48.6363 51.7859 47.7097 52.7126 47.7097 53.8516C47.7097 54.4115 47.2542 54.8673 46.694 54.8673H25.2601C24.7002 54.8673 24.2444 54.4118 24.2444 53.8516C24.2444 52.7126 23.3178 51.7859 22.1787 51.7859H6.47265V17.9046C6.47265 16.4834 7.62897 15.327 9.05025 15.327H14.4699C14.7229 15.327 14.9278 15.1221 14.9278 14.8691C14.9278 14.6162 14.7229 14.4112 14.4699 14.4112H9.05025C7.12377 14.4112 5.55657 15.9784 5.55657 17.9049V51.7864H3.53601C1.91697 51.7864 0.599609 53.1035 0.599609 54.7228V57.0001C0.599609 58.6192 1.91697 59.9366 3.53601 59.9366H68.4632C70.0825 59.9361 71.3996 58.619 71.3996 56.9999ZM1.51569 56.9999V54.7225C1.51569 53.6085 2.42193 52.7022 3.53601 52.7022H5.82105C5.88009 52.7298 5.94513 52.7464 6.01449 52.7464C6.08385 52.7464 6.14913 52.7298 6.20793 52.7022H22.179C22.8128 52.7022 23.3286 53.218 23.3286 53.8518C23.3286 54.917 24.1952 55.7834 25.2601 55.7834H46.694C47.7591 55.7834 48.6255 54.9167 48.6255 53.8518C48.6255 53.218 49.1413 52.7022 49.7751 52.7022H65.4781C65.5371 52.7298 65.6022 52.7464 65.6715 52.7464C65.7409 52.7464 65.8062 52.7298 65.865 52.7022H68.4627C69.5768 52.7022 70.4831 53.6085 70.4831 54.7225V56.9999C70.4831 58.114 69.5768 59.0202 68.4627 59.0202H3.53601C2.42193 59.02 1.51569 58.1138 1.51569 56.9999Z" fill="#7A0000"/>
<path d="M1.51569 56.9999V54.7225C1.51569 53.6085 2.42193 52.7022 3.53601 52.7022H5.82105C5.88009 52.7298 5.94513 52.7464 6.01449 52.7464C6.08385 52.7464 6.14913 52.7298 6.20793 52.7022H22.179C22.8128 52.7022 23.3286 53.218 23.3286 53.8518C23.3286 54.917 24.1952 55.7834 25.2601 55.7834H46.694C47.7591 55.7834 48.6255 54.9167 48.6255 53.8518C48.6255 53.218 49.1413 52.7022 49.7751 52.7022H65.4781C65.5371 52.7298 65.6022 52.7464 65.6715 52.7464C65.7409 52.7464 65.8062 52.7298 65.865 52.7022H68.4627C69.5768 52.7022 70.4831 53.6085 70.4831 54.7225V56.9999C70.4831 58.114 69.5768 59.0202 68.4627 59.0202H3.53601C2.42193 59.02 1.51569 58.1138 1.51569 56.9999Z" fill="white"/>
<path d="M12.5749 18.7872C11.4874 18.7872 10.6028 19.7086 10.6028 20.8412V48.4496C10.6028 48.7025 10.8077 48.9075 11.0607 48.9075C11.3137 48.9075 11.5186 48.7025 11.5186 48.4496V20.8412C11.5186 20.2138 11.9924 19.7031 12.5746 19.7031H13.8277C14.0806 19.7031 14.2856 19.4981 14.2856 19.2452C14.2856 18.9922 14.0806 18.7872 13.8277 18.7872H12.5749Z" fill="#7A0000"/>
<path d="M60.6272 48.9075C60.8802 48.9075 61.0852 48.7025 61.0852 48.4496V20.8412C61.0852 19.7086 60.2005 18.7872 59.1131 18.7872H58.1728C57.9198 18.7872 57.7148 18.9922 57.7148 19.2452C57.7148 19.4981 57.9198 19.7031 58.1728 19.7031H59.1131C59.6956 19.7031 60.1691 20.2136 60.1691 20.8412V48.4496C60.1691 48.7025 60.3743 48.9075 60.6272 48.9075Z" fill="#7A0000"/>
<path d="M34.9633 0.0893474C24.4376 0.632227 16.1924 9.32119 16.1924 19.8704C16.1924 25.7715 18.7961 31.3232 23.3362 35.1013C27.0989 38.2326 30.5439 41.8304 33.5761 45.7945C34.1583 46.5555 35.0417 46.9921 36.0001 46.9921C36.9584 46.9921 37.8418 46.5555 38.4243 45.7942L38.4836 45.7165C41.3689 41.9444 44.8333 38.3398 48.7808 35.0029C50.8126 33.2854 52.4535 31.2164 53.6581 28.8531C54.8991 26.4183 55.6105 23.7956 55.7725 21.0577C56.1039 15.4561 54.0133 9.94519 50.0365 5.93839C46.0604 1.93231 40.5651 -0.198893 34.9633 0.0893474ZM54.8583 21.0041C54.5549 26.1301 52.1245 30.9776 48.1897 34.3038C44.1917 37.6832 40.6815 41.3358 37.7559 45.1604L37.6966 45.2382C37.2891 45.771 36.6709 46.0762 36.0001 46.0762C35.3293 46.0762 34.711 45.7707 34.3035 45.2382C31.2301 41.2198 27.7371 37.5723 23.9221 34.3974C19.5917 30.7938 17.1082 25.4989 17.1082 19.8706C17.1082 9.80935 24.9718 1.52239 35.0101 1.00447C35.3314 0.987907 35.6516 0.979747 35.9717 0.979747C40.9774 0.979747 45.8211 2.99239 49.3861 6.58423C53.1797 10.4062 55.1741 15.6622 54.8583 21.0041Z" fill="#7A0000"/>
<path d="M54.8583 21.0041C54.5549 26.1301 52.1245 30.9776 48.1897 34.3038C44.1917 37.6832 40.6815 41.3358 37.7559 45.1604L37.6966 45.2382C37.2891 45.771 36.6709 46.0762 36.0001 46.0762C35.3293 46.0762 34.711 45.7707 34.3035 45.2382C31.2301 41.2198 27.7371 37.5723 23.9221 34.3974C19.5917 30.7938 17.1082 25.4989 17.1082 19.8706C17.1082 9.80935 24.9718 1.52239 35.0101 1.00447C35.3314 0.987907 35.6516 0.979747 35.9717 0.979747C40.9774 0.979747 45.8211 2.99239 49.3861 6.58423C53.1797 10.4062 55.1741 15.6622 54.8583 21.0041Z" fill="white"/>
<path d="M36.2087 13.3025L22.5997 16.5677C22.5963 16.5687 22.5927 16.5694 22.5894 16.5704C22.1504 16.6868 21.8487 17.0698 21.8389 17.5239C21.8387 17.5332 21.8394 17.5424 21.8394 17.5517C21.8394 17.5544 21.8387 17.557 21.8387 17.5599L21.8411 22.7576C21.0999 22.9596 20.5527 23.6369 20.5527 24.4414V26.6648C20.5527 27.1364 20.9365 27.5201 21.4083 27.5201H23.1913C23.6629 27.5201 24.0467 27.1364 24.0467 26.6648V24.4414C24.0467 23.6367 23.4987 22.9592 22.7571 22.7573L22.7552 18.5688L27.9858 20.0504V23.1584C27.9858 24.924 29.4222 26.3602 31.1876 26.3602H41.8547C43.6201 26.3602 45.0565 24.9238 45.0565 23.1584V20.2256L50.4692 18.7844C50.4731 18.7834 50.4767 18.7822 50.4805 18.7812C50.9159 18.6531 51.2072 18.2621 51.2051 17.8083C51.2029 17.3542 50.9079 16.9659 50.4714 16.8418C50.4678 16.8408 50.4639 16.8399 50.4603 16.8389L36.7307 13.3073C36.5598 13.2598 36.3798 13.2584 36.2087 13.3025ZM23.1303 24.4414V26.6043H21.4686V24.4414C21.4686 23.9832 21.8413 23.6105 22.2995 23.6105C22.7576 23.6105 23.1303 23.9832 23.1303 24.4414ZM44.1402 23.1581C44.1402 24.4186 43.1147 25.4441 41.8542 25.4441H31.1871C29.9267 25.4441 28.9011 24.4186 28.9011 23.1581V20.3096L36.2903 22.4024C36.3865 22.4316 36.4854 22.4463 36.5845 22.4463C36.6779 22.4463 36.7715 22.4333 36.8627 22.4072L44.1399 20.4694L44.1402 23.1581ZM50.2887 17.8124C50.289 17.8772 50.2472 17.8944 50.2263 17.9009L36.6224 21.5232C36.6186 21.5242 36.615 21.5254 36.6111 21.5264C36.5931 21.5316 36.5744 21.5314 36.5567 21.5259C36.5528 21.5247 36.5487 21.5235 36.5449 21.5225L22.8152 17.6338C22.7943 17.6268 22.7531 17.6088 22.7545 17.544C22.7559 17.479 22.7984 17.4629 22.8195 17.4572L36.4266 14.1924C36.4302 14.1915 36.4335 14.1908 36.4371 14.1898C36.453 14.1855 36.47 14.1855 36.4863 14.1903C36.4899 14.1912 36.4938 14.1922 36.4974 14.1932L50.2254 17.7243C50.2463 17.7305 50.2885 17.7471 50.2887 17.8124Z" fill="#7A0000"/>
</svg>
