<svg width="268" height="101" viewBox="0 0 268 101" fill="none" xmlns="http://www.w3.org/2000/svg">
<path d="M267.5 93.5L256.941 88.8277L258.174 100.309L267.5 93.5ZM0.122038 1.47873C0.509237 2.18883 0.906467 2.91552 1.31456 3.65748L3.06698 2.69361C2.66048 1.95457 2.26452 1.23019 1.87796 0.52127L0.122038 1.47873ZM3.77917 8.06928C4.58567 9.48649 5.43259 10.9457 6.32535 12.4406L8.04245 11.4151C7.15794 9.93401 6.31812 8.4871 5.51742 7.08008L3.77917 8.06928ZM8.97161 16.7499C9.84941 18.1387 10.7678 19.5514 11.7308 20.9836L13.3905 19.8677C12.4388 18.4522 11.5307 17.0553 10.6622 15.6813L8.97161 16.7499ZM14.6117 25.1321C15.5733 26.4722 16.5751 27.8252 17.6203 29.1877L19.2072 27.9703C18.1755 26.6255 17.1863 25.2897 16.2367 23.9662L14.6117 25.1321ZM20.7602 33.1439C21.8107 34.4231 22.901 35.7079 24.0336 36.9954L25.5353 35.6745C24.4181 34.4044 23.3424 33.1369 22.3059 31.8746L20.7602 33.1439ZM27.4416 40.7381C28.5829 41.9489 29.7634 43.1599 30.9851 44.3689L32.3919 42.9474C31.187 41.7549 30.0226 40.5605 28.8969 39.3663L27.4416 40.7381ZM34.6485 47.8707C35.8638 48.9929 37.1166 50.1115 38.4085 51.2247L39.7141 49.7097C38.4397 48.6115 37.2039 47.5081 36.0052 46.4013L34.6485 47.8707ZM42.2951 54.4604C43.5964 55.5069 44.9343 56.547 46.3103 57.5793L47.5105 55.9794C46.1526 54.9607 44.8324 53.9344 43.5485 52.9019L42.2951 54.4604ZM50.3905 60.5369C51.7491 61.4883 53.1421 62.4316 54.5708 63.3654L55.665 61.6913C54.2542 60.7692 52.8789 59.8379 51.5378 58.8987L50.3905 60.5369ZM58.8754 66.083C60.2855 66.9426 61.728 67.7928 63.2039 68.6326L64.193 66.8943C62.7346 66.0644 61.3094 65.2244 59.9165 64.3753L58.8754 66.083ZM67.6366 71.0686C69.1091 71.85 70.6128 72.621 72.1486 73.3806L73.0353 71.5879C71.5165 70.8367 70.0297 70.0744 68.5741 69.302L67.6366 71.0686ZM76.6832 75.5465C78.2075 76.2493 79.7616 76.9411 81.3463 77.6209L82.1348 75.7829C80.5664 75.1101 79.0286 74.4256 77.5206 73.7303L76.6832 75.5465ZM85.9621 79.5322C87.5187 80.1541 89.1034 80.7646 90.7167 81.3632L91.4124 79.4882C89.8145 78.8952 88.2453 78.2906 86.704 77.6749L85.9621 79.5322ZM95.4268 83.0482C97.0113 83.5944 98.622 84.1292 100.26 84.6522L100.868 82.747C99.2448 82.2286 97.6486 81.6986 96.0786 81.1574L95.4268 83.0482ZM105.039 86.1216C106.65 86.598 108.286 87.0632 109.947 87.5165L110.473 85.5871C108.826 85.1374 107.204 84.6761 105.606 84.2037L105.039 86.1216ZM114.77 88.7814C116.401 89.192 118.055 89.5915 119.733 89.9794L120.184 88.0308C118.518 87.6458 116.876 87.2493 115.258 86.8419L114.77 88.7814ZM124.598 91.0571C126.234 91.404 127.892 91.7401 129.572 92.065L129.952 90.1014C128.284 89.7787 126.637 89.445 125.013 89.1006L124.598 91.0571ZM134.512 92.9771C136.146 93.2646 137.801 93.5418 139.476 93.8083L139.79 91.8332C138.126 91.5683 136.482 91.2929 134.859 91.0073L134.512 92.9771ZM144.507 94.5678C146.133 94.8003 147.779 95.023 149.443 95.2355L149.697 93.2516C148.042 93.0403 146.406 92.819 144.79 92.5879L144.507 94.5678ZM154.493 95.8427C156.137 96.0282 157.799 96.2041 159.479 96.37L159.675 94.3797C158.005 94.2147 156.352 94.0398 154.718 93.8553L154.493 95.8427ZM164.479 96.8301C166.163 96.9737 167.864 97.1076 169.584 97.2315L169.728 95.2367C168.017 95.1134 166.324 94.9802 164.648 94.8373L164.479 96.8301ZM174.53 97.5572C176.192 97.6565 177.871 97.7467 179.566 97.8274L179.661 95.8297C177.974 95.7493 176.303 95.6596 174.649 95.5608L174.53 97.5572ZM184.661 98.0402C186.299 98.099 187.952 98.1493 189.62 98.1908L189.67 96.1914C188.009 96.1501 186.364 96.1 184.733 96.0415L184.661 98.0402ZM194.669 98.2889C196.354 98.3126 198.053 98.3275 199.768 98.3335L199.775 96.3335C198.067 96.3275 196.375 96.3127 194.697 96.2891L194.669 98.2889ZM204.726 98.3261C206.393 98.3154 208.073 98.2964 209.768 98.269L209.736 96.2692C208.048 96.2966 206.373 96.3155 204.713 96.3261L204.726 98.3261ZM214.893 98.1613C216.527 98.1192 218.174 98.0694 219.834 98.0117L219.765 96.0129C218.111 96.0704 216.47 96.12 214.841 96.162L214.893 98.1613ZM224.852 97.8152C226.538 97.7417 228.237 97.6604 229.948 97.5709L229.844 95.5737C228.138 95.6628 226.445 95.7439 224.765 95.8171L224.852 97.8152ZM234.941 97.2894C236.59 97.1896 238.25 97.0825 239.922 96.968L239.786 94.9726C238.119 95.0868 236.463 95.1936 234.82 95.293L234.941 97.2894ZM244.975 96.6018C246.656 96.4734 248.348 96.3376 250.052 96.1942L249.884 94.2013C248.185 94.3442 246.498 94.4796 244.823 94.6076L244.975 96.6018ZM254.985 95.7613C256.641 95.61 258.307 95.4517 259.985 95.2863L259.788 93.296C258.116 93.4609 256.454 93.6187 254.803 93.7696L254.985 95.7613Z" fill="white"/>
</svg>
