<svg width="60" height="60" viewBox="0 0 60 60" fill="none" xmlns="http://www.w3.org/2000/svg">
<path d="M33.5343 40.1883H24.8493C24.6193 40.1883 24.4329 40.3747 24.4329 40.6047V59.0833C24.4329 59.3133 24.6193 59.4997 24.8493 59.4997H33.5343C33.7643 59.4997 33.9507 59.3133 33.9507 59.0833V40.6047C33.9507 40.3747 33.7643 40.1883 33.5343 40.1883ZM33.1179 58.6669H25.2659V41.0213H33.1179V58.6669Z" fill="#7A0000"/>
<path d="M33.1179 58.6669H25.2659V41.0213H33.1179V58.6669Z" fill="white"/>
<path d="M46.2843 33.3516H37.5993C37.3693 33.3516 37.1829 33.538 37.1829 33.768V59.0836C37.1829 59.3136 37.3693 59.5 37.5993 59.5H46.2843C46.5143 59.5 46.7007 59.3136 46.7007 59.0836V33.768C46.7007 33.538 46.5143 33.3516 46.2843 33.3516ZM45.8679 58.6672H38.0159V34.1844H45.8679V58.6672Z" fill="#7A0000"/>
<path d="M45.8679 58.6672H38.0159V34.1844H45.8679V58.6672Z" fill="white"/>
<path d="M59.0345 25.1286H50.3495C50.1195 25.1286 49.9331 25.315 49.9331 25.545V59.0836C49.9331 59.3136 50.1195 59.5 50.3495 59.5H59.0345C59.2645 59.5 59.4509 59.3136 59.4509 59.0836V25.545C59.4509 25.315 59.2645 25.1286 59.0345 25.1286ZM58.6181 58.6672H50.7661V25.9614H58.6181V58.6672Z" fill="#7A0000"/>
<path d="M58.6181 58.6672H50.7661V25.9614H58.6181V58.6672Z" fill="white"/>
<path d="M22.8641 57.9534C10.2157 55.0292 1.38207 43.906 1.38207 30.9038C1.38207 15.595 13.8367 3.14056 29.1455 3.14056C34.5071 3.14056 39.2117 4.44816 43.5279 7.13816C43.7229 7.25956 43.9799 7.20016 44.1017 7.00496C44.2233 6.80976 44.1637 6.55296 43.9685 6.43116C39.5163 3.65636 34.6677 2.30756 29.1457 2.30756C21.5073 2.30756 14.3261 5.28216 8.92507 10.6832C3.52367 16.0842 0.549072 23.2654 0.549072 30.9038C0.549072 34.2222 1.11247 37.4742 2.22387 40.5692C3.29787 43.5602 4.85727 46.3374 6.85887 48.8236C10.8675 53.8028 16.4849 57.3334 22.6765 58.7648C22.7081 58.772 22.7395 58.7756 22.7707 58.7756C22.9603 58.7756 23.1315 58.6454 23.1761 58.4528C23.2279 58.2288 23.0883 58.0052 22.8641 57.9534Z" fill="#7A0000"/>
<path d="M53.0173 15.899C52.8239 16.0234 52.7677 16.281 52.8921 16.4746C54.4097 18.8366 55.1459 20.821 55.8421 23.2574C55.8945 23.4404 56.0611 23.5596 56.2423 23.5596C56.2801 23.5596 56.3187 23.5544 56.3569 23.5436C56.5781 23.4804 56.7061 23.2498 56.6429 23.0288C55.9259 20.5198 55.1657 18.4728 53.5929 16.0246C53.4683 15.8308 53.2109 15.7748 53.0173 15.899Z" fill="#7A0000"/>
<path d="M50.1169 23.533C50.3325 23.4528 50.4421 23.213 50.3619 22.9974C49.2883 20.1138 47.5907 17.4254 45.4427 15.1954L47.5491 13.089L51.6889 14.4688C51.7767 14.498 51.8665 14.5124 51.9555 14.5124C52.1731 14.5124 52.3847 14.427 52.5449 14.2668L59.2055 7.60618C59.4327 7.37898 59.5093 7.04918 59.4057 6.74518C59.3023 6.44118 59.0401 6.22678 58.7215 6.18558L54.3359 5.61798L54.2825 6.03098L54.3331 5.61498L53.7655 1.22938C53.7243 0.91098 53.5099 0.64878 53.2059 0.54518C52.9021 0.44158 52.5721 0.51838 52.3449 0.74538L45.6841 7.40598C45.4587 7.63158 45.3815 7.95958 45.4823 8.26158L46.9019 12.52C46.9051 12.5294 46.9095 12.5382 46.9129 12.5474L44.8541 14.6062C40.6141 10.5156 35.0529 8.26698 29.1453 8.26698C23.0989 8.26698 17.4143 10.6218 13.1387 14.8974C8.8631 19.173 6.5083 24.8576 6.5083 30.9038C6.5083 35.874 8.0885 40.591 11.0783 44.5448C13.9707 48.37 18.0807 51.2292 22.6509 52.5956C22.6907 52.6076 22.7309 52.6132 22.7703 52.6132C22.9495 52.6132 23.1151 52.4966 23.1691 52.316C23.2349 52.0956 23.1097 51.8636 22.8893 51.7976C13.7347 49.0606 7.3411 40.4686 7.3411 30.9038C7.3411 18.881 17.1223 9.09978 29.1451 9.09978C34.8301 9.09978 40.1823 11.2618 44.2649 15.195L40.6401 18.8202C37.5263 15.8544 33.4609 14.2262 29.1455 14.2262C19.9493 14.2262 12.4679 21.7078 12.4679 30.9038C12.4679 37.5994 16.4477 43.623 22.6069 46.2498C22.6603 46.2724 22.7157 46.2832 22.7701 46.2832C22.9319 46.2832 23.0859 46.1884 23.1533 46.03C23.2435 45.8184 23.1451 45.5738 22.9335 45.4836C17.0817 42.9878 13.3005 37.265 13.3005 30.9038C13.3005 22.167 20.4085 15.0592 29.1453 15.0592C33.2383 15.0592 37.0943 16.601 40.0507 19.4096L36.4233 23.037C34.4367 21.1956 31.8687 20.1858 29.1453 20.1858C23.2353 20.1858 18.4271 24.994 18.4271 30.904C18.4271 34.207 19.9161 37.2758 22.5123 39.3236C22.5887 39.3838 22.6797 39.413 22.7699 39.413C22.8931 39.413 23.0149 39.3586 23.0971 39.2544C23.2395 39.0738 23.2087 38.812 23.0281 38.6694C20.6333 36.7806 19.2599 33.9502 19.2599 30.9038C19.2599 25.453 23.6945 21.0184 29.1453 21.0184C31.6463 21.0184 34.0051 21.9416 35.8341 23.626L32.2009 27.2592C31.3735 26.5644 30.3077 26.1448 29.1453 26.1448C26.5211 26.1448 24.3863 28.2796 24.3863 30.9036C24.3863 33.5276 26.5211 35.6624 29.1453 35.6624C31.7693 35.6624 33.9041 33.5276 33.9041 30.9036C33.9041 29.7412 33.4845 28.6754 32.7897 27.848L36.4229 24.2148C38.1073 26.0438 39.0305 28.4026 39.0305 30.9036C39.0305 31.198 39.0173 31.4964 38.9915 31.791C38.9713 32.0202 39.1407 32.2222 39.3699 32.2424C39.5985 32.2632 39.8011 32.0932 39.8213 31.864C39.8495 31.5454 39.8635 31.2222 39.8635 30.9036C39.8635 28.1802 38.8537 25.6122 37.0123 23.6256L40.6397 19.9982C43.4483 22.9546 44.9901 26.8106 44.9901 30.9036C44.9901 31.21 44.9817 31.5128 44.9649 31.8036C44.9517 32.0332 45.1271 32.23 45.3567 32.2432C45.5857 32.2586 45.7831 32.081 45.7963 31.8514C45.8141 31.5448 45.8229 31.226 45.8229 30.9036C45.8229 26.588 44.1947 22.5226 41.2289 19.409L44.8537 15.7842C46.9179 17.9302 48.5491 20.5154 49.5813 23.288C49.6615 23.5038 49.9011 23.6136 50.1169 23.533ZM46.2729 7.99498L52.9393 1.33638L53.5069 5.72198C53.5557 6.09838 53.8525 6.39518 54.2289 6.44398L58.6163 7.01738L51.9523 13.6788L47.6917 12.2572L46.2729 7.99498ZM33.0715 30.9038C33.0715 33.0686 31.3103 34.8298 29.1455 34.8298C26.9807 34.8298 25.2195 33.0686 25.2195 30.9038C25.2195 28.739 26.9807 26.9778 29.1455 26.9778C30.0781 26.9778 30.9355 27.3054 31.6097 27.8506L28.8509 30.6092C28.6883 30.7718 28.6883 31.0356 28.8509 31.198C28.9321 31.2794 29.0387 31.32 29.1453 31.32C29.2519 31.32 29.3585 31.2794 29.4397 31.198L32.1985 28.4394C32.7439 29.1138 33.0715 29.9712 33.0715 30.9038Z" fill="#7A0000"/>
<path d="M46.2729 7.99498L52.9393 1.33638L53.5069 5.72198C53.5557 6.09838 53.8525 6.39518 54.2289 6.44398L58.6163 7.01738L51.9523 13.6788L47.6917 12.2572L46.2729 7.99498Z" fill="white"/>
<path d="M33.0715 30.9038C33.0715 33.0686 31.3103 34.8298 29.1455 34.8298C26.9807 34.8298 25.2195 33.0686 25.2195 30.9038C25.2195 28.739 26.9807 26.9778 29.1455 26.9778C30.0781 26.9778 30.9355 27.3054 31.6097 27.8506L28.8509 30.6092C28.6883 30.7718 28.6883 31.0356 28.8509 31.198C28.9321 31.2794 29.0387 31.32 29.1453 31.32C29.2519 31.32 29.3585 31.2794 29.4397 31.198L32.1985 28.4394C32.7439 29.1138 33.0715 29.9712 33.0715 30.9038Z" fill="white"/>
</svg>
