<svg width="60" height="60" viewBox="0 0 60 60" fill="none" xmlns="http://www.w3.org/2000/svg">
<path d="M59.0126 23.4425H55.6862V20.4895C55.6862 20.3699 55.6334 20.2563 55.542 20.1793C55.4506 20.1023 55.33 20.0693 55.2118 20.0897L51.506 20.7285V18.3335C51.506 18.2045 51.4448 18.0833 51.341 18.0069C51.2372 17.9303 51.1034 17.9079 50.9802 17.9461L43.2148 20.3559C43.0008 20.4223 42.8812 20.6495 42.9476 20.8635C43.014 21.0775 43.241 21.1971 43.4552 21.1307L50.6946 18.8841V21.2055L50.6942 21.2103L50.6946 21.2147V53.0317L30.6454 58.5623V43.5725C30.6454 43.3485 30.4638 43.1669 30.2398 43.1669C30.0158 43.1669 29.8342 43.3485 29.8342 43.5725V58.5621L9.78479 53.0317V18.8841L16.3052 20.9077C16.5194 20.9741 16.7466 20.8543 16.8128 20.6405C16.8792 20.4265 16.7596 20.1993 16.5456 20.1329L9.49939 17.9461C9.37619 17.9079 9.24239 17.9305 9.13859 18.0069C9.03479 18.0833 8.97359 18.2045 8.97359 18.3335V20.7287L5.26699 20.0899C5.14879 20.0695 5.02819 20.1023 4.93679 20.1795C4.84539 20.2567 4.79259 20.3701 4.79259 20.4897V23.4427H0.987387C0.763387 23.4427 0.581787 23.6243 0.581787 23.8483V59.0949C0.581787 59.3189 0.763387 59.5005 0.987387 59.5005H59.0128C59.2368 59.5005 59.4184 59.3189 59.4184 59.0949V23.8481C59.4184 23.6241 59.2368 23.4425 59.0126 23.4425ZM51.208 53.7315C51.384 53.6829 51.5058 53.5229 51.5058 53.3405V21.5519L54.8748 20.9711V55.1451L36.5244 57.7819L51.208 53.7315ZM8.97359 21.5519V53.3405C8.97359 53.5229 9.09539 53.6831 9.27139 53.7315L23.9552 57.7821L5.60379 55.1453V23.8517L5.60419 23.8483L5.60379 23.8447V20.9711L8.97359 21.5519ZM1.39299 24.2539H4.79239V55.4967C4.79239 55.6985 4.94059 55.8695 5.14039 55.8983L24.5644 58.6893H1.39299V24.2539ZM58.607 58.6891H35.9148L55.3382 55.8981C55.538 55.8695 55.6862 55.6983 55.6862 55.4965V24.2539H58.607V58.6891Z" fill="#7A0000"/>
<path d="M1.39299 24.2539H4.79239V55.4967C4.79239 55.6985 4.94059 55.8695 5.14039 55.8983L24.5644 58.6893H1.39299V24.2539Z" fill="white"/>
<path d="M51.208 53.7315C51.384 53.6829 51.5058 53.5229 51.5058 53.3405V21.5519L54.8748 20.9711V55.1451L36.5244 57.7819L51.208 53.7315Z" fill="white"/>
<path d="M58.607 58.6891H35.9148L55.3382 55.8981C55.538 55.8695 55.6862 55.6983 55.6862 55.4965V24.2539H58.607V58.6891Z" fill="white"/>
<path d="M8.97359 21.5519V53.3405C8.97359 53.5229 9.09539 53.6831 9.27139 53.7315L23.9552 57.7821L5.60379 55.1453V23.8517L5.60419 23.8483L5.60379 23.8447V20.9711L8.97359 21.5519Z" fill="white"/>
<path d="M22.4539 36.1742C22.4539 39.2372 24.9459 41.729 28.0089 41.729H31.9913C35.0543 41.729 37.5463 39.2372 37.5463 36.1742V33.5116C37.5741 33.4566 37.5911 33.3954 37.5911 33.3298V27.5536C37.5911 26.1854 38.1551 24.8832 39.1383 23.9808C41.9223 21.426 43.5189 17.7952 43.5189 14.0192C43.5189 10.4408 42.1345 7.0678 39.6205 4.5214C37.1089 1.9776 33.7587 0.550004 30.1871 0.501404C26.5763 0.451404 23.1639 1.7994 20.5853 4.2946C18.0063 6.7904 16.5495 10.154 16.4835 13.766C16.4121 17.6726 18.0313 21.4174 20.9263 24.04C21.7725 24.8066 22.3115 25.8642 22.4575 27.0078C22.4565 27.0194 22.4541 27.0304 22.4541 27.0424L22.4539 36.1742ZM31.9913 40.9178H28.0089C25.3933 40.9178 23.2653 38.7898 23.2653 36.1742V33.7354H32.1311H32.1343H36.7349V36.1742C36.7349 38.7898 34.6069 40.9178 31.9913 40.9178ZM32.3945 15.2024C32.3915 14.725 32.5751 14.2754 32.9117 13.9366C33.2483 13.5978 33.6965 13.4112 34.1741 13.4112H34.4757C35.4067 13.4112 36.1867 14.1388 36.2511 15.0676L36.3417 16.3724C36.3759 16.8642 36.2111 17.3352 35.8779 17.6986C35.5447 18.062 35.0897 18.2666 34.5967 18.275L32.4189 18.3122L32.3945 15.2024ZM21.4711 23.4388C18.7497 20.9734 17.2275 17.4532 17.2947 13.7808C17.4211 6.869 23.1043 1.3114 30.0017 1.3114C30.0595 1.3114 30.1183 1.3118 30.1761 1.3126C37.0861 1.4064 42.7077 7.1064 42.7077 14.019C42.7077 17.5682 41.2067 20.9812 38.5897 23.3828C37.4395 24.4384 36.7797 25.9586 36.7797 27.5534V32.924H32.5335L32.4253 19.1236L34.6107 19.0864C35.3283 19.0742 35.9907 18.776 36.4759 18.247C36.9611 17.718 37.2009 17.0322 37.1511 16.3162L37.0605 15.0114C36.9667 13.6592 35.8313 12.6 34.4759 12.6H34.1743C33.4791 12.6 32.8263 12.8716 32.3363 13.3648C31.8463 13.858 31.5789 14.5126 31.5833 15.2082L31.6077 18.3262L27.9781 18.388L27.9045 15.1122C27.8617 13.7034 26.7241 12.6 25.3147 12.6C23.8861 12.6 22.7237 13.7624 22.7237 15.191V16.6534C22.7237 17.3538 22.9989 18.01 23.4983 18.5012C23.9977 18.9922 24.6539 19.2556 25.3589 19.2442L27.1851 19.213L27.4205 29.6878C27.4255 29.9086 27.6061 30.0844 27.8259 30.0844H27.8351C28.0591 30.0794 28.2367 29.8938 28.2315 29.6698L27.9963 19.1994L31.6139 19.1378L31.7221 32.9244H23.3101V27.6368C23.3101 26.0278 22.6399 24.4978 21.4711 23.4388ZM27.1669 18.402L25.3449 18.433C25.3345 18.4332 25.3241 18.4332 25.3137 18.4332C24.8443 18.4332 24.4027 18.2526 24.0671 17.9226C23.7239 17.5854 23.5351 17.1346 23.5351 16.6534V15.191C23.5351 14.2096 24.3335 13.4112 25.3147 13.4112C26.2827 13.4112 27.0641 14.1692 27.0935 15.1336L27.1669 18.402Z" fill="#7A0000"/>
<path d="M21.4711 23.4388C18.7497 20.9734 17.2275 17.4532 17.2947 13.7808C17.4211 6.869 23.1043 1.3114 30.0017 1.3114C30.0595 1.3114 30.1183 1.3118 30.1761 1.3126C37.0861 1.4064 42.7077 7.1064 42.7077 14.019C42.7077 17.5682 41.2067 20.9812 38.5897 23.3828C37.4395 24.4384 36.7797 25.9586 36.7797 27.5534V32.924H32.5335L32.4253 19.1236L34.6107 19.0864C35.3283 19.0742 35.9907 18.776 36.4759 18.247C36.9611 17.718 37.2009 17.0322 37.1511 16.3162L37.0605 15.0114C36.9667 13.6592 35.8313 12.6 34.4759 12.6H34.1743C33.4791 12.6 32.8263 12.8716 32.3363 13.3648C31.8463 13.858 31.5789 14.5126 31.5833 15.2082L31.6077 18.3262L27.9781 18.388L27.9045 15.1122C27.8617 13.7034 26.7241 12.6 25.3147 12.6C23.8861 12.6 22.7237 13.7624 22.7237 15.191V16.6534C22.7237 17.3538 22.9989 18.01 23.4983 18.5012C23.9977 18.9922 24.6539 19.2556 25.3589 19.2442L27.1851 19.213L27.4205 29.6878C27.4255 29.9086 27.6061 30.0844 27.8259 30.0844H27.8351C28.0591 30.0794 28.2367 29.8938 28.2315 29.6698L27.9963 19.1994L31.6139 19.1378L31.7221 32.9244H23.3101V27.6368C23.3101 26.0278 22.6399 24.4978 21.4711 23.4388Z" fill="white"/>
<path d="M31.9913 40.9178H28.0089C25.3933 40.9178 23.2653 38.7898 23.2653 36.1742V33.7354H32.1311H32.1343H36.7349V36.1742C36.7349 38.7898 34.6069 40.9178 31.9913 40.9178Z" fill="white"/>
</svg>
