<svg width="48" height="48" viewBox="0 0 48 48" fill="none" xmlns="http://www.w3.org/2000/svg">
<circle cx="24" cy="24" r="24" fill="#FAFAFA"/>
<path d="M24 13.5C24.9946 13.5 25.9484 13.8951 26.6517 14.5983C27.3549 15.3016 27.75 16.2554 27.75 17.25V18H20.25V17.25C20.25 16.2554 20.6451 15.3016 21.3483 14.5983C22.0516 13.8951 23.0054 13.5 24 13.5ZM29.25 18V17.25C29.25 15.8576 28.6969 14.5223 27.7123 13.5377C26.7277 12.5531 25.3924 12 24 12C22.6076 12 21.2723 12.5531 20.2877 13.5377C19.3031 14.5223 18.75 15.8576 18.75 17.25V18H13.5V33C13.5 33.7956 13.8161 34.5587 14.3787 35.1213C14.9413 35.6839 15.7044 36 16.5 36H31.5C32.2956 36 33.0587 35.6839 33.6213 35.1213C34.1839 34.5587 34.5 33.7956 34.5 33V18H29.25ZM15 19.5H33V33C33 33.3978 32.842 33.7794 32.5607 34.0607C32.2794 34.342 31.8978 34.5 31.5 34.5H16.5C16.1022 34.5 15.7206 34.342 15.4393 34.0607C15.158 33.7794 15 33.3978 15 33V19.5Z" fill="#7A0000"/>
</svg>
