<svg width="121" height="107" viewBox="0 0 121 107" fill="none" xmlns="http://www.w3.org/2000/svg">
<g clip-path="url(#clip0_1_8)">
<path d="M6.55262 45.6077H9.00985V56.4233H6.55262V51.8439H2.45723V56.4233H0V45.6077H2.45723V49.7403H6.55262V45.6077ZM11.5229 56.4233V45.6077H18.8574V47.6554H13.9615V49.7776H18.3175V51.7694H13.9615V54.3942H19.2297V56.4233H11.5229ZM28.3326 56.4233C28.2023 56.051 28.072 55.66 27.9417 55.2691C27.7928 54.8782 27.6625 54.4873 27.5135 54.0963H23.2692C23.1389 54.4873 22.99 54.8782 22.8597 55.2691C22.7294 55.6786 22.5991 56.051 22.4688 56.4233H19.9371C20.3466 55.2691 20.7375 54.1894 21.0912 53.2028C21.4635 52.2162 21.8172 51.2854 22.1709 50.4105C22.5246 49.5356 22.8783 48.6979 23.2134 47.916C23.5485 47.1156 23.9022 46.3523 24.2745 45.6077H26.6014C26.9551 46.3523 27.3088 47.1156 27.6438 47.916C27.9975 48.6979 28.3512 49.5356 28.7049 50.4105C29.0586 51.2854 29.4123 52.2162 29.7846 53.2028C30.1569 54.1894 30.5292 55.2691 30.9388 56.4233H28.3326ZM25.3914 48.065C25.3355 48.2139 25.2425 48.4373 25.1494 48.6979C25.0377 48.9771 24.926 49.275 24.7771 49.6473C24.6468 50.001 24.4978 50.3919 24.3303 50.82C24.1628 51.2296 23.9952 51.6763 23.8277 52.1603H26.9365C26.7689 51.6763 26.62 51.2296 26.4525 50.8014C26.3035 50.3733 26.1546 49.9823 26.0057 49.6286C25.8754 49.275 25.7451 48.9585 25.6334 48.6979C25.5403 48.4186 25.4472 48.2139 25.3914 48.065ZM39.6135 54.3383V56.4233H32.3535V45.6077H34.7922V54.3383H39.6135ZM41.1772 45.6077H43.6345V56.4233H41.1772V45.6077ZM53.4448 56.4233C52.7374 55.1946 51.9742 53.966 51.1551 52.756C50.336 51.546 49.4797 50.4105 48.5489 49.3308V56.4233H46.1475V45.6077H48.1394C48.4745 45.9428 48.8654 46.371 49.2749 46.8736C49.7031 47.3762 50.1312 47.8974 50.5594 48.4745C50.9875 49.033 51.4157 49.6286 51.8438 50.243C52.272 50.8386 52.6815 51.4343 53.0538 51.9928V45.6077H55.4925V56.4233H53.4448ZM63.3109 47.4879C62.1754 47.4879 61.3377 47.8043 60.8351 48.4186C60.3325 49.0516 60.0718 49.9265 60.0718 51.0062C60.0718 51.546 60.1463 52.03 60.258 52.4582C60.3883 52.8863 60.5745 53.2586 60.8351 53.5751C61.0771 53.8916 61.3935 54.1336 61.7658 54.3011C62.1381 54.4686 62.5849 54.5617 63.0875 54.5617C63.3668 54.5617 63.5901 54.5431 63.7949 54.5431C63.9811 54.5245 64.1486 54.5059 64.2975 54.4873V50.7083H66.7362V56.0696C66.4569 56.1813 65.9729 56.3116 65.34 56.4419C64.6885 56.5722 63.888 56.628 62.9386 56.628C62.1195 56.628 61.3749 56.5163 60.7048 56.2557C60.0532 56.0137 59.4762 55.6414 59.0108 55.1574C58.5454 54.692 58.1731 54.0963 57.9125 53.4076C57.6518 52.7002 57.5401 51.8997 57.5401 51.0062C57.5401 50.1126 57.6705 49.3122 57.9497 48.6048C58.2475 47.916 58.6198 47.3203 59.1225 46.8363C59.6065 46.3523 60.1835 45.98 60.8537 45.738C61.5238 45.4774 62.2312 45.3657 62.9758 45.3657C63.4971 45.3657 63.9625 45.3843 64.372 45.4588C64.7815 45.5333 65.1352 45.6077 65.4331 45.7008C65.7309 45.7753 65.9729 45.8683 66.1777 45.9614C66.3638 46.0545 66.5128 46.129 66.5872 46.1848L65.8798 48.1394C65.5448 47.9533 65.1538 47.8043 64.7257 47.674C64.2975 47.5437 63.8135 47.4879 63.3109 47.4879ZM72.6372 56.5722C72.0415 56.5722 71.4458 56.5536 70.8688 56.5163C70.2731 56.4791 69.6588 56.386 69.0258 56.2557V45.7566C69.5285 45.6636 70.0683 45.6077 70.664 45.5519C71.2597 45.5146 71.8181 45.4774 72.3394 45.4774C73.0281 45.4774 73.6611 45.5333 74.2382 45.6263C74.8152 45.738 75.3178 45.9056 75.7274 46.129C76.1555 46.371 76.4906 46.6874 76.714 47.0783C76.956 47.4693 77.0677 47.9533 77.0677 48.5303C77.0677 49.3866 76.6581 50.0754 75.8205 50.578C76.5092 50.8386 76.9746 51.1923 77.2352 51.6391C77.4772 52.0859 77.6075 52.5885 77.6075 53.147C77.6075 54.2825 77.1794 55.1388 76.3603 55.7159C75.5226 56.293 74.294 56.5722 72.6372 56.5722ZM71.4086 51.7136V54.5059C71.5762 54.5245 71.7809 54.5431 71.9857 54.5617C72.1905 54.5617 72.4325 54.5803 72.6745 54.5803C73.4005 54.5803 73.9961 54.4686 74.4429 54.2639C74.9083 54.0591 75.1317 53.6682 75.1317 53.1097C75.1317 52.6071 74.9269 52.2534 74.5546 52.03C74.1823 51.8253 73.6425 51.7136 72.9351 51.7136H71.4086ZM71.4086 49.852H72.6C73.3446 49.852 73.8845 49.759 74.2195 49.5728C74.536 49.368 74.7035 49.0702 74.7035 48.642C74.7035 48.1953 74.536 47.8974 74.2009 47.7113C73.8658 47.5437 73.3632 47.4506 72.7303 47.4506C72.5069 47.4506 72.2835 47.4506 72.0415 47.4506C71.7995 47.4693 71.5948 47.4693 71.4086 47.4879V49.852ZM81.6285 51.0062C81.6285 51.546 81.6843 52.03 81.8146 52.4396C81.9449 52.8677 82.1311 53.24 82.3917 53.5565C82.6337 53.8543 82.9315 54.0963 83.2852 54.2639C83.6389 54.4314 84.0485 54.5059 84.5138 54.5059C84.9606 54.5059 85.3701 54.4314 85.7238 54.2639C86.0775 54.0963 86.394 53.8543 86.636 53.5565C86.878 53.24 87.0641 52.8677 87.1945 52.4396C87.3248 52.03 87.3992 51.546 87.3992 51.0062C87.3992 50.485 87.3248 50.001 87.1945 49.5728C87.0641 49.126 86.878 48.7723 86.636 48.4559C86.394 48.158 86.0775 47.916 85.7238 47.7485C85.3701 47.581 84.9606 47.4879 84.5138 47.4879C84.0485 47.4879 83.6389 47.581 83.2852 47.7485C82.9315 47.9346 82.6337 48.158 82.3917 48.4745C82.1311 48.7723 81.9449 49.1446 81.8146 49.5728C81.6843 50.0196 81.6285 50.485 81.6285 51.0062ZM89.9309 51.0062C89.9309 51.937 89.782 52.756 89.5028 53.4634C89.2235 54.1522 88.8512 54.7479 88.3672 55.2133C87.8832 55.6973 87.3061 56.051 86.6546 56.293C85.9845 56.535 85.2771 56.6466 84.5138 56.6466C83.7692 56.6466 83.0618 56.535 82.4103 56.293C81.7402 56.051 81.1631 55.6973 80.6791 55.2133C80.1951 54.7479 79.8041 54.1522 79.5249 53.4634C79.2271 52.756 79.0968 51.937 79.0968 51.0062C79.0968 50.0754 79.2457 49.275 79.5249 48.5676C79.8228 47.8602 80.2137 47.2645 80.7163 46.7991C81.2189 46.3151 81.796 45.9614 82.4475 45.7194C83.0991 45.4774 83.7878 45.3657 84.5138 45.3657C85.2585 45.3657 85.9472 45.4774 86.6174 45.7194C87.2689 45.9614 87.846 46.3151 88.33 46.7991C88.8326 47.2645 89.2235 47.8602 89.5028 48.5676C89.782 49.275 89.9309 50.0754 89.9309 51.0062ZM99.1083 46.7619C99.2386 47.19 99.3875 47.674 99.5365 48.2139C99.6854 48.7351 99.8529 49.2936 100.02 49.8706C100.188 50.4477 100.356 51.0248 100.542 51.5833C100.709 52.1603 100.895 52.7002 101.063 53.1842C101.193 52.6443 101.342 52.0673 101.472 51.453C101.621 50.82 101.752 50.1871 101.882 49.517C102.012 48.8468 102.124 48.1766 102.254 47.5251C102.366 46.855 102.478 46.222 102.589 45.6077H105.121C104.767 47.4134 104.339 49.2563 103.855 51.1179C103.371 52.9794 102.869 54.7479 102.31 56.4233H100.058C99.704 55.4366 99.3503 54.3756 98.9966 53.2773C98.6615 52.179 98.3078 51.0806 97.9728 49.9823C97.6377 51.0806 97.3212 52.179 96.9862 53.2773C96.6325 54.3756 96.2974 55.4366 95.9251 56.4233H93.6912C93.1328 54.7479 92.6115 52.9794 92.1275 51.1179C91.6621 49.2563 91.234 47.4134 90.8617 45.6077H93.5237C93.6168 46.222 93.7285 46.855 93.8588 47.5251C93.9891 48.1766 94.1194 48.8468 94.2497 49.517C94.3986 50.1871 94.5289 50.82 94.6778 51.453C94.8082 52.0673 94.9571 52.6443 95.106 53.1842C95.2922 52.663 95.4783 52.1231 95.6645 51.5646C95.832 50.9876 96.0181 50.4105 96.1857 49.8334C96.3532 49.275 96.5021 48.7165 96.6511 48.1766C96.7814 47.6554 96.9117 47.1714 97.0234 46.7619H99.1083ZM113.945 54.3383V56.4233H106.685V45.6077H109.123V54.3383H113.945Z" fill="#7A0000"/>
<path fill-rule="evenodd" clip-rule="evenodd" d="M116.607 34.457C119.027 34.457 121 36.4303 121 38.8503C121 41.2703 119.027 43.2249 116.607 43.2249C114.168 43.2249 112.195 41.2703 112.195 38.8503C112.195 36.4303 114.168 34.457 116.607 34.457ZM114.671 36.4861V41.0096C114.671 41.0283 114.671 41.0469 114.69 41.0469H115.862V39.3156C116.346 39.3156 116.57 39.2784 116.812 39.5949C117.072 39.93 117.556 41.0469 117.556 41.0469H118.822C118.822 40.9724 118.32 39.9858 118.226 39.8369C118.059 39.4646 117.817 38.9992 117.37 38.9061C117.5 38.8689 117.705 38.7572 117.854 38.6455C118.133 38.4221 118.226 38.1056 118.245 37.7706C118.245 37.51 118.208 37.2493 118.078 37.0446C117.798 36.5792 117.128 36.4489 116.626 36.4489H114.69C114.671 36.4489 114.671 36.4675 114.671 36.4861ZM115.862 37.9009V37.3238H116.421C116.756 37.3238 117.054 37.4541 117.054 37.8264C117.054 37.845 117.054 37.8823 117.054 37.9009C117.054 37.9195 117.054 37.9567 117.054 37.9753C117.054 38.3476 116.756 38.478 116.421 38.478H115.862V37.9009ZM116.607 35.3692C118.524 35.3692 120.088 36.9143 120.088 38.8503C120.088 40.7676 118.524 42.3313 116.607 42.3313C114.671 42.3313 113.107 40.7676 113.107 38.8503C113.107 36.9143 114.671 35.3692 116.607 35.3692Z" fill="#7A0000"/>
<path fill-rule="evenodd" clip-rule="evenodd" d="M55.3059 28.314C54.9522 26.3222 54.8405 23.232 51.9737 20.5328C48.3438 17.1262 46.9848 18.9505 45.477 16.3815C43.5224 12.9935 45.1419 10.164 41.0651 4.97031C38.7754 2.02908 37.249 2.15938 32.9861 0C34.587 3.25769 37.1187 6.40369 36.9511 9.62415C36.7464 13.2728 33.2281 16.6422 34.3264 19.9371C34.9407 21.7614 36.3182 23.3809 37.8447 24.9632C40.0599 26.0057 42.0145 28.0348 43.4107 31.4786C46.7987 29.4682 50.7637 28.314 55.0081 28.314C55.1011 28.314 55.2128 28.314 55.3059 28.314ZM51.6014 19.4345L58.1354 9.75446C59.8108 13.2542 62.4356 17.8708 63.7945 21.296L63.8317 21.4263C63.9807 22.0778 64.0551 22.7852 64.0551 23.5298C63.9993 24.4048 63.8317 25.4286 63.5339 26.4711C63.2361 27.4205 62.7893 28.4071 62.1936 29.4682C60.239 28.8166 58.1354 28.4257 55.9761 28.3326C55.9202 28.0348 55.8644 27.7183 55.8085 27.3832C55.5851 25.8195 55.2687 23.8091 53.9284 21.8358C53.221 20.7748 52.5881 20.1977 51.6014 19.4345ZM72.8416 36.9702C74.1633 35.4437 76.5274 33.4146 76.8253 29.4868C77.2162 24.5165 74.9265 24.6282 76.0062 21.8545C77.4024 18.2058 80.6601 17.6846 82.1493 11.2623C83.0056 7.63231 81.9445 6.55262 80.9765 1.88015C79.4128 5.17508 78.5379 9.10292 75.9317 11.0017C72.9533 13.1238 68.1133 12.5282 66.2145 15.4508C65.1721 17.0517 64.7811 19.1366 64.5019 21.3146C65.079 23.6974 64.7067 26.4711 62.901 29.7102C66.8661 31.1808 70.2913 33.7125 72.8416 36.9702ZM77.4396 28.5002L89.1301 27.4763C87.4361 30.9946 85.5001 35.9091 83.6571 39.1295L83.5827 39.2226C83.1545 39.7625 82.6705 40.2651 82.0748 40.7118C81.3488 41.2331 80.4553 41.7357 79.4501 42.1638C78.5193 42.5362 77.4396 42.8154 76.2296 43.0202C75.485 41.0283 74.4797 39.1668 73.2325 37.4914C73.4187 37.268 73.6421 37.026 73.8841 36.7654C74.9637 35.5926 76.3413 34.1034 77.0487 31.8137C77.421 30.5851 77.4768 29.766 77.4396 28.5002ZM107.094 43.802C107.745 42.9457 108.471 41.9032 109.588 40.6002C106.033 41.4006 102.384 43.1318 99.2754 42.2569C95.7571 41.2331 93.2441 37.0632 89.763 37.3797C87.8642 37.5472 85.9654 38.5152 84.0667 39.6508C82.5588 41.5682 80.1202 42.9829 76.4344 43.5786L76.5088 43.802H107.094ZM90.0981 58.2289L94.361 62.7525C90.5448 63.5901 85.4442 65.098 81.777 65.6378H81.6467C80.9579 65.6378 80.2505 65.5634 79.5431 65.3772C78.6868 65.1352 77.7188 64.7443 76.7694 64.2231C75.9876 63.7577 75.1871 63.1806 74.3681 62.4546C75.1871 61.1329 75.8573 59.7182 76.3785 58.2289H90.0981ZM64.6136 71.2038C65.805 72.842 67.2384 75.5412 70.9614 76.7326C75.7456 78.2405 76.1551 76.0066 78.631 77.6634C81.8887 79.86 81.6467 83.1363 87.585 86.0589C90.9357 87.6971 92.2388 86.9338 97.023 87.0455C94.1562 84.7931 90.5262 83.0432 89.279 80.0648C87.8642 76.714 89.5582 72.1532 87.1382 69.6402C85.7979 68.2626 83.8433 67.4063 81.777 66.6431C79.3197 66.6617 76.695 65.6751 73.9213 63.1806C71.6316 66.6431 68.4111 69.4354 64.6136 71.2038ZM71.7991 77.5517L70.1237 89.0932C67.0894 86.6732 62.7148 83.6575 59.997 81.1445L59.9225 81.0514C59.4757 80.5115 59.1034 79.9158 58.787 79.2457C58.4519 78.4266 58.1541 77.44 57.9679 76.3789C57.8376 75.4109 57.8004 74.3312 57.8748 73.1585C60.0342 72.8792 62.0819 72.3021 64.0179 71.4831C64.1668 71.7065 64.353 71.9485 64.5205 72.2091C65.4327 73.5308 66.5868 75.2061 68.6345 76.3975C69.7514 77.0491 70.5519 77.2911 71.7991 77.5517ZM44.9371 70.9805C44.4345 72.9351 43.1687 75.8205 44.6393 79.5063C46.5008 84.1415 48.4927 83.0432 48.7719 86.0031C49.1256 89.8937 46.4264 91.7925 47.9342 98.2148C48.7719 101.826 50.2053 102.347 53.1465 106.108C53.0721 102.478 52.1227 98.5685 53.6491 95.7203C55.3617 92.4998 59.9784 90.9175 60.3879 87.4551C60.6113 85.5563 60.0528 83.5272 59.3268 81.4423C57.7631 79.5808 56.8696 76.9374 57.0371 73.2515C56.367 73.3074 55.6968 73.326 55.0081 73.326C51.3967 73.326 47.9714 72.4883 44.9371 70.9805ZM44.5276 80.6605L34.4939 86.7105C34.4567 82.8198 34.0285 77.5517 34.2519 73.8472L34.2705 73.7355C34.4194 73.0654 34.6428 72.3952 34.9779 71.7251C35.3874 70.9618 35.9645 70.1055 36.6719 69.2865C37.3793 68.5046 38.2542 67.76 39.2967 67.034C40.8045 68.4674 42.4985 69.696 44.3414 70.6826C44.267 70.9805 44.1739 71.3342 44.0622 71.6878C43.6154 73.2143 43.0384 75.1689 43.4293 77.5145C43.6154 78.7803 43.9505 79.5435 44.5276 80.6605ZM27.8482 58.2289C27.1967 58.806 26.5824 59.532 26.0425 60.4441C23.4922 64.7443 25.5771 65.6565 23.3991 67.6669C20.5138 70.3289 17.3678 69.3609 13.1793 74.4615C10.7965 77.3469 11.2619 78.7803 10.0705 83.3969C12.9187 81.1258 15.4504 77.9985 18.6336 77.44C22.245 76.8257 26.3217 79.5063 29.3374 77.7192C30.9756 76.7326 32.2601 75.0386 33.4701 73.2143C34.0099 70.8315 35.5736 68.486 38.6451 66.3638C36.4299 64.0555 34.7173 61.3005 33.6376 58.2289H27.8482ZM25.0559 61.0585L17.6842 58.2289H26.9174L26.8802 58.2662C25.9867 59.1969 25.5771 59.9229 25.0559 61.0585ZM37.4724 36.5792C35.7039 35.6112 33.2094 33.7683 29.3188 34.2895C24.3485 34.9783 24.9442 37.1749 21.9844 36.7282C18.0938 36.1325 16.9024 33.0795 10.2753 32.9865C6.5336 32.9306 5.6959 34.1965 1.32129 36.1325C4.87683 36.9515 8.93498 36.9702 11.3364 39.1109C12.6953 40.3209 13.4958 42.1452 14.3521 43.802H33.5073C34.3822 41.14 35.7411 38.7014 37.4724 36.5792ZM28.2019 33.8986L24.7208 22.7666C28.5184 23.6602 33.7679 24.5165 37.3234 25.6148L37.4165 25.6706C38.0494 25.9685 38.6451 26.3408 39.2222 26.8062C39.8737 27.4018 40.5625 28.1651 41.1954 29.0586C41.7353 29.8777 42.2379 30.8271 42.6847 31.9254C40.8976 33.0982 39.2967 34.4943 37.9005 36.0766C37.6399 35.9463 37.3607 35.7788 37.0814 35.6112C35.6853 34.8108 33.9354 33.8055 31.5527 33.6008C30.2682 33.4891 29.4305 33.6008 28.2019 33.8986Z" fill="url(#paint0_linear_1_8)"/>
<path fill-rule="evenodd" clip-rule="evenodd" d="M55.4553 31.1436C63.9067 31.1436 71.1108 36.3931 73.9404 43.802H36.9702C39.8184 36.3931 47.0225 31.1436 55.4553 31.1436ZM73.7914 58.2289C70.8502 65.4331 63.7578 70.5151 55.4553 70.5151C47.1714 70.5151 40.079 65.4331 37.1378 58.2289H73.7914Z" fill="url(#paint1_linear_1_8)"/>
</g>
<defs>
<linearGradient id="paint0_linear_1_8" x1="41.2461" y1="27.6844" x2="68.641" y2="76.4029" gradientUnits="userSpaceOnUse">
<stop stop-color="#A10202"/>
<stop offset="0.658824" stop-color="#7A0000"/>
<stop offset="1" stop-color="#690101"/>
</linearGradient>
<linearGradient id="paint1_linear_1_8" x1="50.2661" y1="41.4066" x2="60.2757" y2="59.484" gradientUnits="userSpaceOnUse">
<stop stop-color="#960101"/>
<stop offset="1" stop-color="#740000"/>
</linearGradient>
<clipPath id="clip0_1_8">
<rect width="121" height="106.108" fill="white"/>
</clipPath>
</defs>
</svg>
