<svg width="23" height="16" viewBox="0 0 23 16" fill="none" xmlns="http://www.w3.org/2000/svg">
<path d="M21.8157 0.334961H1.17926C0.530636 0.334961 0 0.865596 0 1.51417V14.4857C0 15.1342 0.530636 15.665 1.17926 15.665H21.8157C22.4643 15.665 22.995 15.1343 22.995 14.4857V1.51417C22.995 0.865596 22.4643 0.334961 21.8157 0.334961ZM21.3732 1.21932L12.1758 8.1179C12.0105 8.24374 11.7566 8.32247 11.4974 8.32131C11.2383 8.32247 10.9845 8.24374 10.8191 8.1179L1.62173 1.21932H21.3732ZM16.4603 8.57308L21.472 14.7641C21.477 14.7703 21.4832 14.775 21.4885 14.7806H1.50644C1.51174 14.7747 1.51794 14.7703 1.52297 14.7641L6.5347 8.57308C6.68825 8.38324 6.65915 8.10492 6.46895 7.95101C6.27911 7.79745 6.00079 7.82656 5.84719 8.01644L0.884408 14.147V1.7721L10.2887 8.82535C10.6422 9.08863 11.0723 9.2045 11.4974 9.20567C11.9219 9.20477 12.3523 9.0889 12.7061 8.82535L22.1104 1.7721V14.1469L17.1477 8.01644C16.9941 7.8266 16.7155 7.79741 16.526 7.95101C16.3358 8.10456 16.3066 8.38324 16.4603 8.57308Z" fill="#7A0000"/>
</svg>
