<svg width="18" height="24" viewBox="0 0 18 24" fill="none" xmlns="http://www.w3.org/2000/svg">
<path d="M8.99999 0C4.11133 0 0.134277 3.97705 0.134277 8.86571C0.134277 10.4751 0.85605 12.206 0.886298 12.279C1.11941 12.8323 1.57939 13.6918 1.91107 14.1956L7.98982 23.406C8.23858 23.7836 8.60677 24 8.99999 24C9.39321 24 9.7614 23.7836 10.0102 23.4065L16.0894 14.1956C16.4216 13.6918 16.8811 12.8323 17.1142 12.279C17.1444 12.2065 17.8657 10.4756 17.8657 8.86571C17.8657 3.97705 13.8886 0 8.99999 0ZM16.1525 11.8743C15.9444 12.3703 15.5163 13.1698 15.2185 13.6214L9.13923 22.8323C9.01928 23.0143 8.98121 23.0143 8.86126 22.8323L2.782 13.6214C2.48421 13.1698 2.05605 12.3698 1.84797 11.8738C1.8391 11.8524 1.1773 10.2592 1.1773 8.86571C1.1773 4.55228 4.68656 1.04302 8.99999 1.04302C13.3134 1.04302 16.8227 4.55228 16.8227 8.86571C16.8227 10.2613 16.1593 11.8587 16.1525 11.8743Z" fill="#7A0000"/>
<path d="M9.00001 4.17285C6.41174 4.17285 4.3064 6.27872 4.3064 8.86646C4.3064 11.4542 6.41174 13.5601 9.00001 13.5601C11.5883 13.5601 13.6936 11.4542 13.6936 8.86646C13.6936 6.27872 11.5883 4.17285 9.00001 4.17285ZM9.00001 12.517C6.98749 12.517 5.34942 10.8795 5.34942 8.86646C5.34942 6.85342 6.98749 5.21588 9.00001 5.21588C11.0125 5.21588 12.6506 6.85342 12.6506 8.86646C12.6506 10.8795 11.0125 12.517 9.00001 12.517Z" fill="#7A0000"/>
</svg>
