<svg width="16" height="16" viewBox="0 0 16 16" fill="none" xmlns="http://www.w3.org/2000/svg">
<g clip-path="url(#clip0_71_999)">
<path d="M12.3244 15.7513C12.175 15.7508 12.026 15.7345 11.88 15.7024C9.1007 15.1274 6.54025 13.7794 4.49331 11.8135C2.49005 9.84321 1.10069 7.33463 0.493311 4.59126C0.421694 4.24935 0.439271 3.89477 0.544353 3.56162C0.649434 3.22847 0.838483 2.92797 1.09331 2.68903L2.87109 0.977923C2.96189 0.892051 3.06978 0.826291 3.18772 0.784937C3.30566 0.743583 3.43099 0.727563 3.55553 0.737923C3.68467 0.751395 3.80929 0.792995 3.92063 0.859798C4.03197 0.9266 4.12732 1.01698 4.19998 1.12459L6.4222 4.40903C6.50553 4.53648 6.54576 4.6873 6.53696 4.83932C6.52816 4.99133 6.4708 5.13651 6.37331 5.25348L5.25776 6.58681C5.70204 7.57012 6.33124 8.45885 7.11109 9.20459C7.88589 9.97739 8.80168 10.5945 9.80887 11.0224L11.1911 9.92459C11.3072 9.83284 11.4484 9.7786 11.5961 9.76907C11.7438 9.75954 11.8908 9.79519 12.0178 9.87126L15.3733 12.0401C15.4885 12.1089 15.5866 12.2028 15.6603 12.3149C15.734 12.4269 15.7814 12.5542 15.7989 12.6872C15.8164 12.8201 15.8036 12.9553 15.7615 13.0827C15.7193 13.21 15.6489 13.3261 15.5555 13.4224L13.8222 15.1379C13.6253 15.3338 13.3916 15.4889 13.1346 15.5942C12.8775 15.6994 12.6022 15.7528 12.3244 15.7513ZM3.48442 1.61792L1.70664 3.32903C1.56329 3.46261 1.45717 3.6312 1.39873 3.81823C1.34028 4.00525 1.33152 4.20427 1.37331 4.3957C1.93808 6.96998 3.2363 9.32561 5.11109 11.1779C7.0374 13.0275 9.44692 14.2954 12.0622 14.8357C12.2602 14.8771 12.4653 14.8687 12.6592 14.8113C12.8531 14.7539 13.0298 14.6493 13.1733 14.5068L14.9066 12.7913L11.6666 10.6979L10.1822 11.8801C10.1254 11.9251 10.0584 11.9555 9.98714 11.9687C9.91587 11.9819 9.84246 11.9774 9.77331 11.9557C8.54073 11.5016 7.42374 10.7807 6.5022 9.84459C5.54902 8.95446 4.80914 7.86059 4.33776 6.64459C4.31781 6.57097 4.31715 6.49346 4.33583 6.41952C4.35451 6.34557 4.39191 6.27768 4.44442 6.22237L5.64442 4.78681L3.48442 1.61792Z" fill="#464646"/>
</g>
<defs>
<clipPath id="clip0_71_999">
<rect width="16" height="16" fill="white"/>
</clipPath>
</defs>
</svg>
