<svg width="25" height="16" viewBox="0 0 25 16" fill="none" xmlns="http://www.w3.org/2000/svg">
<path d="M0.292892 7.29314C-0.0976315 7.68366 -0.0976315 8.31683 0.292892 8.70735L6.65685 15.0713C7.04738 15.4618 7.68054 15.4618 8.07107 15.0713C8.46159 14.6808 8.46159 14.0476 8.07107 13.6571L2.41421 8.00024L8.07107 2.34339C8.46159 1.95287 8.46159 1.3197 8.07107 0.929176C7.68054 0.538652 7.04738 0.538652 6.65685 0.929176L0.292892 7.29314ZM25 7.00024L1 7.00024V9.00024L25 9.00024V7.00024Z" fill="white"/>
<path d="M0.292892 7.29314C-0.0976315 7.68366 -0.0976315 8.31683 0.292892 8.70735L6.65685 15.0713C7.04738 15.4618 7.68054 15.4618 8.07107 15.0713C8.46159 14.6808 8.46159 14.0476 8.07107 13.6571L2.41421 8.00024L8.07107 2.34339C8.46159 1.95287 8.46159 1.3197 8.07107 0.929176C7.68054 0.538652 7.04738 0.538652 6.65685 0.929176L0.292892 7.29314ZM25 7.00024L1 7.00024V9.00024L25 9.00024V7.00024Z" fill="url(#paint0_linear_56_695)"/>
<defs>
<linearGradient id="paint0_linear_56_695" x1="16.1497" y1="7.73934" x2="16.1353" y2="7.13536" gradientUnits="userSpaceOnUse">
<stop stop-color="#A10202"/>
<stop offset="0.658824" stop-color="#7A0000"/>
<stop offset="1" stop-color="#690101"/>
</linearGradient>
</defs>
</svg>
