<svg width="16" height="16" viewBox="0 0 16 16" fill="none" xmlns="http://www.w3.org/2000/svg">
<path d="M14.855 14.1449L10.725 9.99989C11.6275 8.911 12.0758 7.5163 11.9769 6.1055C11.878 4.6947 11.2394 3.37623 10.1938 2.42394C9.14816 1.47165 7.7759 0.958733 6.36202 0.991734C4.94814 1.02473 3.60131 1.60111 2.60127 2.60115C1.60123 3.60119 1.02486 4.94802 0.991856 6.3619C0.958855 7.77578 1.47177 9.14804 2.42406 10.1936C3.37635 11.2392 4.69482 11.8778 6.10562 11.9768C7.51643 12.0757 8.91112 11.6274 10 10.7249L14.13 14.8549C14.1765 14.9018 14.2318 14.939 14.2927 14.9643C14.3537 14.9897 14.419 15.0028 14.485 15.0028C14.551 15.0028 14.6164 14.9897 14.6773 14.9643C14.7382 14.939 14.7935 14.9018 14.84 14.8549C14.8879 14.8094 14.9263 14.7549 14.9529 14.6945C14.9796 14.6341 14.9941 14.569 14.9955 14.503C14.9969 14.437 14.9852 14.3714 14.9611 14.3099C14.937 14.2484 14.9009 14.1924 14.855 14.1449ZM2.00001 6.49989C2.00001 5.60988 2.26393 4.73985 2.7584 3.99983C3.25287 3.2598 3.95567 2.68303 4.77794 2.34243C5.60021 2.00184 6.50501 1.91273 7.37792 2.08636C8.25083 2.25999 9.05266 2.68858 9.68199 3.31791C10.3113 3.94725 10.7399 4.74907 10.9135 5.62199C11.0872 6.4949 10.9981 7.3997 10.6575 8.22197C10.3169 9.04424 9.7401 9.74704 9.00008 10.2415C8.26006 10.736 7.39003 10.9999 6.50001 10.9999C5.30654 10.9999 4.16195 10.5258 3.31803 9.68187C2.47412 8.83796 2.00001 7.69337 2.00001 6.49989Z" fill="#464646"/>
</svg>
