<svg width="29" height="30" viewBox="0 0 29 30" fill="none" xmlns="http://www.w3.org/2000/svg">
<path d="M28.71 27.2898L20.45 18.9998C22.255 16.822 23.1516 14.0326 22.9538 11.211C22.7559 8.3894 21.4787 5.75245 19.3875 3.84787C17.2963 1.94329 14.5518 0.917466 11.724 0.983467C8.89628 1.04947 6.20262 2.20222 4.20254 4.2023C2.20247 6.20237 1.04971 8.89604 0.983711 11.7238C0.91771 14.5516 1.94354 17.2961 3.84812 19.3873C5.7527 21.4785 8.38965 22.7557 11.2112 22.9535C14.0329 23.1514 16.8222 22.2547 19 20.4498L27.26 28.7098C27.353 28.8035 27.4636 28.8779 27.5855 28.9287C27.7073 28.9794 27.838 29.0056 27.97 29.0056C28.102 29.0056 28.2327 28.9794 28.3546 28.9287C28.4765 28.8779 28.5871 28.8035 28.68 28.7098C28.7757 28.6188 28.8525 28.5098 28.9059 28.389C28.9592 28.2682 28.9881 28.1381 28.9909 28.006C28.9937 27.874 28.9703 27.7428 28.9221 27.6198C28.8739 27.4969 28.8018 27.3847 28.71 27.2898ZM3.00003 11.9998C3.00003 10.2198 3.52787 8.47969 4.5168 6.99965C5.50573 5.51961 6.91134 4.36606 8.55588 3.68487C10.2004 3.00368 12.01 2.82545 13.7558 3.17272C15.5017 3.51998 17.1053 4.37715 18.364 5.63582C19.6227 6.8945 20.4798 8.49814 20.8271 10.244C21.1744 11.9898 20.9961 13.7994 20.3149 15.4439C19.6338 17.0885 18.4802 18.4941 17.0002 19.483C15.5201 20.4719 13.7801 20.9998 12 20.9998C9.61308 20.9998 7.32389 20.0516 5.63607 18.3637C3.94824 16.6759 3.00003 14.3867 3.00003 11.9998Z" fill="#7A0000"/>
</svg>
