<svg width="92" height="92" viewBox="0 0 92 92" fill="none" xmlns="http://www.w3.org/2000/svg">
<path d="M61.2905 54.5021C61.2905 54.5021 67.7857 50.0605 70.393 45.5208C72.6107 41.6596 72.5215 34.7904 72.4695 33.223C72.4634 33.0389 72.3122 32.8984 72.128 32.8984H20.35C20.1673 32.8984 20.0166 33.0366 20.0085 33.2192C19.9391 34.7784 19.7654 41.6483 21.8456 45.5208C24.459 50.3859 32.7688 54.5021 32.7688 54.5021M61.2905 54.5021H32.7688M61.2905 54.5021V58.4032C61.2905 58.5947 61.1352 58.75 60.9437 58.75H33.1156C32.9241 58.75 32.7688 58.5947 32.7688 58.4032V54.5021" stroke="#7A0000" stroke-width="1.42857"/>
<path d="M85.4949 46.5051C85.7739 46.784 86.2261 46.784 86.5051 46.5051L91.0508 41.9594C91.3297 41.6804 91.3297 41.2282 91.0508 40.9492C90.7718 40.6703 90.3196 40.6703 90.0406 40.9492L86 44.9898L81.9594 40.9492C81.6804 40.6703 81.2282 40.6703 80.9492 40.9492C80.6703 41.2282 80.6703 41.6804 80.9492 41.9594L85.4949 46.5051ZM45.4949 85.4949C45.216 85.7739 45.216 86.2261 45.4949 86.5051L50.0406 91.0508C50.3196 91.3297 50.7718 91.3297 51.0508 91.0508C51.3297 90.7718 51.3297 90.3196 51.0508 90.0406L47.0102 86L51.0508 81.9594C51.3297 81.6804 51.3297 81.2282 51.0508 80.9492C50.7718 80.6703 50.3196 80.6703 50.0406 80.9492L45.4949 85.4949ZM6.50508 45.4949C6.22613 45.216 5.77387 45.216 5.49492 45.4949L0.949237 50.0406C0.670291 50.3196 0.670291 50.7718 0.949237 51.0508C1.22818 51.3297 1.68044 51.3297 1.95939 51.0508L6 47.0102L10.0406 51.0508C10.3196 51.3297 10.7718 51.3297 11.0508 51.0508C11.3297 50.7718 11.3297 50.3196 11.0508 50.0406L6.50508 45.4949ZM46.5051 6.50508C46.784 6.22613 46.784 5.77387 46.5051 5.49492L41.9594 0.949237C41.6804 0.670291 41.2282 0.670291 40.9492 0.949237C40.6703 1.22818 40.6703 1.68044 40.9492 1.95939L44.9898 6L40.9492 10.0406C40.6703 10.3196 40.6703 10.7718 40.9492 11.0508C41.2282 11.3297 41.6804 11.3297 41.9594 11.0508L46.5051 6.50508ZM54.9214 7.73151C72.3207 11.7714 85.2857 27.3725 85.2857 46H86.7143C86.7143 26.6933 73.2766 10.5268 55.2445 6.33996L54.9214 7.73151ZM84.2685 54.9214C80.2286 72.3207 64.6275 85.2857 46 85.2857V86.7143C65.3067 86.7143 81.4732 73.2766 85.66 55.2445L84.2685 54.9214ZM38.2793 84.5274C20.2794 80.9408 6.71429 65.0537 6.71429 46H5.28571C5.28571 65.7483 19.345 82.2112 38.0001 85.9285L38.2793 84.5274ZM7.47255 38.2793C11.0593 20.2794 26.9463 6.71429 46 6.71429V5.28571C26.2517 5.28571 9.78878 19.345 6.07153 38.0001L7.47255 38.2793Z" fill="#7A0000"/>
</svg>
