<svg width="24" height="24" viewBox="0 0 24 24" fill="none" xmlns="http://www.w3.org/2000/svg">
<path d="M22.0841 2.59712C21.9936 2.519 21.8836 2.46706 21.7658 2.4469C21.648 2.42674 21.5269 2.43914 21.4156 2.48275L2.41627 9.91806C2.18518 10.0085 1.98966 10.1714 1.85908 10.3825C1.7285 10.5935 1.6699 10.8412 1.69209 11.0883C1.71428 11.3355 1.81606 11.5688 1.98214 11.7532C2.14823 11.9375 2.36964 12.0631 2.61315 12.1109L7.6869 13.1074V18.7502C7.687 19.0118 7.76528 19.2675 7.91168 19.4842C8.05808 19.701 8.26593 19.8691 8.50855 19.967C8.75117 20.0648 9.01749 20.0879 9.27333 20.0333C9.52917 19.9787 9.76285 19.8489 9.9444 19.6606L12.4419 17.0702L16.34 20.4874C16.578 20.698 16.8847 20.8144 17.2025 20.8146C17.3413 20.8143 17.4792 20.7925 17.6113 20.7499C17.8278 20.6814 18.0226 20.5573 18.1763 20.39C18.3299 20.2227 18.437 20.0181 18.4869 19.7965L22.295 3.24118C22.3218 3.1248 22.3163 3.00331 22.2791 2.88982C22.242 2.77632 22.1745 2.67512 22.0841 2.59712ZM2.81658 11.0037C2.81299 10.994 2.81299 10.9834 2.81658 10.9737C2.82082 10.9704 2.82557 10.9679 2.83065 10.9662L17.8035 5.10493L8.11909 12.0424L2.83065 11.0074L2.81658 11.0037ZM9.1344 18.8787C9.10856 18.9055 9.07532 18.924 9.03892 18.9319C9.00252 18.9397 8.96461 18.9365 8.93002 18.9228C8.89542 18.909 8.86572 18.8852 8.84468 18.8545C8.82364 18.8238 8.81223 18.7875 8.8119 18.7502V13.8856L11.5953 16.3231L9.1344 18.8787ZM17.391 19.5424C17.384 19.5741 17.3687 19.6034 17.3466 19.6271C17.3245 19.6509 17.2965 19.6683 17.2653 19.6774C17.2336 19.6886 17.1994 19.691 17.1664 19.6844C17.1335 19.6778 17.1029 19.6624 17.0778 19.6399L9.15315 12.6884L20.9056 4.26587L17.391 19.5424Z" fill="#7A0000"/>
</svg>
