<svg width="12" height="7" viewBox="0 0 12 7" fill="none" xmlns="http://www.w3.org/2000/svg">
<path d="M5.99995 0.024951C6.13328 0.024951 6.26228 0.0499516 6.38695 0.0999517C6.51228 0.149952 6.61662 0.216618 6.69995 0.299952L11.3 4.89995C11.4833 5.08328 11.575 5.31662 11.575 5.59995C11.575 5.88329 11.4833 6.11662 11.3 6.29995C11.1166 6.48328 10.8833 6.57495 10.6 6.57495C10.3166 6.57495 10.0833 6.48328 9.89995 6.29995L5.99995 2.39995L2.09995 6.29995C1.91662 6.48328 1.68328 6.57495 1.39995 6.57495C1.11662 6.57495 0.883286 6.48328 0.699952 6.29995C0.516619 6.11662 0.424951 5.88329 0.424951 5.59995C0.424951 5.31662 0.516619 5.08328 0.699952 4.89995L5.29995 0.299952C5.39995 0.199952 5.50828 0.129285 5.62495 0.0879517C5.74162 0.0459518 5.86662 0.024951 5.99995 0.024951Z" fill="#757575"/>
</svg>
