<svg width="24" height="24" viewBox="0 0 24 24" fill="none" xmlns="http://www.w3.org/2000/svg">
<g clip-path="url(#clip0_127_205)">
<path d="M11.4019 0C9.47495 0.028 5.33495 0.344 3.02195 2.467C1.30395 4.187 0.697949 6.7 0.634949 9.817C0.571949 12.933 0.489949 18.776 6.12195 20.36H6.12495L6.12095 22.776C6.12095 22.776 6.08395 23.753 6.73095 23.953C7.50795 24.195 7.96495 23.453 8.71095 22.651C9.11795 22.211 9.68295 21.567 10.1079 21.071C13.9579 21.397 16.92 20.655 17.2579 20.546C18.034 20.294 22.434 19.73 23.15 13.889C23.8899 7.869 22.7899 4.059 20.8099 2.343C20.2139 1.793 17.8039 0.043 12.4349 0.02C12.4349 0.02 12.0399 -0.005 11.3979 0.003L11.4019 0ZM11.4599 1.693C12.0049 1.689 12.3399 1.71 12.3399 1.71C16.8819 1.73 19.0569 3.098 19.5619 3.556C21.2369 4.991 22.0919 8.424 21.4679 13.453V13.455C20.8639 18.333 17.2939 18.639 16.636 18.85C16.356 18.94 13.7539 19.587 10.4829 19.374C10.4829 19.374 8.04695 22.314 7.28595 23.078C7.16595 23.198 7.02595 23.245 6.93395 23.222C6.80395 23.189 6.76795 23.034 6.76895 22.808L6.78895 18.79C2.02695 17.47 2.30395 12.498 2.35895 9.895C2.41295 7.291 2.90195 5.157 4.35495 3.722C6.31495 1.949 9.82895 1.704 11.4649 1.692L11.4599 1.693ZM11.8399 4.295C11.7624 4.29891 11.6893 4.33233 11.6356 4.38841C11.582 4.44449 11.5518 4.51898 11.5513 4.59661C11.5508 4.67424 11.58 4.74912 11.6329 4.8059C11.6858 4.86269 11.7585 4.89707 11.8359 4.902C13.4599 4.912 14.7819 5.439 15.8639 6.494C16.9369 7.54 17.4839 8.962 17.497 10.828C17.499 10.995 17.6369 11.128 17.8039 11.128C17.8839 11.1269 17.9602 11.0945 18.0163 11.0376C18.0725 10.9807 18.104 10.9039 18.1039 10.824C18.0899 8.84 17.4859 7.228 16.2879 6.06C15.0979 4.9 13.5949 4.307 11.8399 4.295ZM7.87995 4.99C7.66735 4.96056 7.45095 5.00166 7.26395 5.107L7.25395 5.109C6.82395 5.356 6.43795 5.671 6.10795 6.041C6.10595 6.045 6.10195 6.045 6.09995 6.049C5.83295 6.372 5.67995 6.687 5.63995 6.997C5.63212 7.04323 5.62977 7.09022 5.63295 7.137C5.63295 7.273 5.65495 7.407 5.69795 7.537L5.71095 7.547C5.84595 8.027 6.18395 8.823 6.91595 10.151C7.33595 10.919 7.81895 11.651 8.36195 12.337C8.63195 12.681 8.92195 13.01 9.23195 13.321L9.36395 13.453C9.67395 13.761 10.0039 14.053 10.3479 14.323C11.0345 14.8661 11.7658 15.3502 12.5339 15.77C13.8619 16.503 14.6599 16.84 15.1379 16.976L15.1479 16.99C15.3219 17.0469 15.5061 17.0656 15.6879 17.045C15.9979 17.009 16.3149 16.855 16.636 16.585C16.6399 16.585 16.639 16.583 16.6439 16.58C17.014 16.25 17.327 15.86 17.5739 15.432L17.577 15.422C17.802 14.99 17.7269 14.58 17.3969 14.302C17.393 14.302 16.6989 13.722 16.3599 13.472C15.9999 13.217 15.6299 12.98 15.2469 12.762C14.7369 12.477 14.2149 12.656 13.9989 12.936L13.5519 13.5C13.3219 13.783 12.8949 13.746 12.8949 13.746C9.77495 12.95 8.93995 9.791 8.93995 9.791C8.93995 9.791 8.90295 9.365 9.18795 9.135L9.75095 8.687C10.0279 8.472 10.2069 7.95 9.92095 7.439C9.70375 7.05529 9.46676 6.68312 9.21095 6.324C8.94239 5.97257 8.66565 5.62748 8.38095 5.289C8.25555 5.13196 8.07696 5.02631 7.87895 4.992L7.87995 4.99ZM12.3699 5.87C12.2896 5.86761 12.2116 5.89725 12.1531 5.95238C12.0945 6.00752 12.0603 6.08364 12.0579 6.164C12.0556 6.24436 12.0852 6.32238 12.1403 6.38089C12.1955 6.4394 12.2716 6.47361 12.3519 6.476C13.5119 6.561 14.3689 6.942 14.9969 7.626C15.6269 8.314 15.9269 9.15 15.9029 10.196C15.9073 10.2729 15.9405 10.3453 15.9959 10.3988C16.0514 10.4523 16.1249 10.4829 16.2019 10.4846C16.2789 10.4862 16.3537 10.4588 16.4114 10.4077C16.469 10.3566 16.5053 10.2856 16.5129 10.209C16.5379 9.034 16.1789 8.016 15.4459 7.215C14.7059 6.405 13.6689 5.962 12.3959 5.869H12.3719L12.3699 5.87ZM12.8329 7.5C12.7559 7.50113 12.6822 7.53134 12.6266 7.58458C12.5709 7.63781 12.5375 7.71013 12.5329 7.787C12.5249 7.954 12.6529 8.097 12.8209 8.107C13.3439 8.135 13.6959 8.282 13.9339 8.529C14.1739 8.774 14.3219 9.149 14.3499 9.693C14.3602 9.7684 14.3984 9.83719 14.457 9.88579C14.5156 9.93439 14.5902 9.95926 14.6662 9.95549C14.7422 9.95172 14.814 9.91959 14.8675 9.86543C14.921 9.81128 14.9522 9.73905 14.9549 9.663C14.9249 9.019 14.7399 8.485 14.3749 8.106C14.0079 7.728 13.4819 7.532 12.8549 7.499H12.8369L12.8329 7.5Z" fill="#7A0000"/>
</g>
<defs>
<clipPath id="clip0_127_205">
<rect width="24" height="24" fill="white"/>
</clipPath>
</defs>
</svg>
