<svg width="32" height="32" viewBox="0 0 32 32" fill="none" xmlns="http://www.w3.org/2000/svg">
<g clip-path="url(#clip0_1_96)">
<path d="M20.4214 11.5788L20.3898 11.5472C19.3433 10.5063 17.9604 9.87197 16.4888 9.75786C15.0173 9.64375 13.5531 10.0573 12.3587 10.9244C11.1643 11.7916 10.3176 13.0556 9.97031 14.4902C9.62304 15.9248 9.79786 17.4361 10.4635 18.7535L10.7372 19.2925L10.2256 21.7725V21.804L12.6824 21.2209L13.2424 21.4988C14.4079 22.0773 15.7256 22.2755 17.0098 22.0655C18.2939 21.8555 19.4798 21.2479 20.4003 20.3282C21.5561 19.1669 22.2066 17.5963 22.2106 15.9578C22.2145 14.3194 21.5715 12.7457 20.4214 11.5788ZM20.1729 18.5261C19.8719 18.9998 19.394 19.5788 18.7982 19.724C17.7456 19.9788 16.1435 19.724 14.1372 17.8693L14.1119 17.8461C12.3666 16.2167 11.9035 14.8588 12.0066 13.783C12.0677 13.1725 12.5772 12.6209 13.0066 12.2588C13.0747 12.2008 13.1555 12.1596 13.2425 12.1385C13.3295 12.1175 13.4201 12.1172 13.5072 12.1377C13.5943 12.1582 13.6754 12.1989 13.7438 12.2565C13.8123 12.3141 13.8663 12.387 13.9014 12.4693L14.5477 13.943C14.5899 14.037 14.6057 14.1408 14.5935 14.2431C14.5812 14.3455 14.5414 14.4426 14.4782 14.524L14.1498 14.9451C14.0815 15.0325 14.0409 15.1382 14.033 15.2489C14.0251 15.3595 14.0504 15.4699 14.1056 15.5661C14.4177 16.0252 14.791 16.4395 15.215 16.7977C15.6704 17.2383 16.1882 17.6094 16.7519 17.8988C16.8546 17.9404 16.9673 17.9505 17.0757 17.9276C17.1842 17.9047 17.2832 17.85 17.3603 17.7703L17.7372 17.3893C17.8075 17.3087 17.899 17.2494 18.0013 17.2181C18.1037 17.1869 18.2127 17.1849 18.3161 17.2125L19.8529 17.6546C19.9384 17.6796 20.0168 17.7241 20.0821 17.7846C20.1474 17.8451 20.1978 17.9199 20.2292 18.0032C20.2606 18.0865 20.2723 18.1759 20.2633 18.2645C20.2542 18.353 20.2248 18.4383 20.1772 18.5135L20.1729 18.5261Z" fill="#7A0000"/>
<path d="M16 0C12.8355 0 9.74207 0.938384 7.11088 2.69649C4.4797 4.45459 2.42894 6.95345 1.21793 9.87707C0.00693251 12.8007 -0.309921 16.0178 0.307443 19.1214C0.924806 22.2251 2.44866 25.0761 4.6863 27.3137C6.92394 29.5514 9.77487 31.0752 12.8786 31.6926C15.9823 32.3099 19.1993 31.9931 22.1229 30.7821C25.0466 29.5711 27.5454 27.5203 29.3035 24.8891C31.0616 22.2579 32 19.1645 32 16C32 11.7565 30.3143 7.68687 27.3137 4.68629C24.3131 1.68571 20.2435 0 16 0ZM23.9305 16.1874C23.8873 17.5162 23.5111 18.8128 22.8363 19.9584C22.1616 21.104 21.2099 22.0617 20.0687 22.7438C18.9275 23.4259 17.6333 23.8105 16.3048 23.8622C14.9763 23.914 13.6561 23.6312 12.4653 23.04L8.46527 23.9916C8.40479 24.0055 8.34155 24.0008 8.28373 23.9783C8.22592 23.9558 8.17621 23.9164 8.14106 23.8653C8.11703 23.8311 8.10033 23.7923 8.092 23.7514C8.08366 23.7104 8.08388 23.6682 8.09264 23.6274L8.93474 19.5389C8.38429 18.4604 8.08793 17.2702 8.06834 16.0594C8.04876 14.8486 8.30647 13.6495 8.82176 12.5537C9.33704 11.4578 10.0962 10.4945 11.0412 9.73728C11.9862 8.98009 13.0919 8.44917 14.2737 8.18515C15.4554 7.92113 16.682 7.93102 17.8593 8.21406C19.0367 8.49711 20.1337 9.0458 21.0663 9.81813C21.999 10.5905 22.7425 11.566 23.2401 12.6699C23.7376 13.7739 23.976 14.9771 23.9368 16.1874H23.9305Z" fill="#7A0000"/>
</g>
<defs>
<clipPath id="clip0_1_96">
<rect width="32" height="32" fill="white"/>
</clipPath>
</defs>
</svg>
