<svg width="24" height="24" viewBox="0 0 24 24" fill="none" xmlns="http://www.w3.org/2000/svg">
<path d="M21.5297 17.5417C22.0628 16.4848 22.3314 15.3144 22.3123 14.1308C22.2933 12.9473 21.9872 11.786 21.4205 10.7468C20.8537 9.70766 20.0431 8.82161 19.0583 8.16481C18.0735 7.508 16.944 7.10007 15.7669 6.97607C15.3904 6.0698 14.8354 5.24857 14.1348 4.56132C13.4343 3.87407 12.6026 3.33485 11.6893 2.97579C10.776 2.61673 9.79978 2.44518 8.81878 2.47135C7.83778 2.49752 6.87208 2.72089 5.97922 3.12814C5.08636 3.53538 4.2846 4.11818 3.62172 4.84181C2.95884 5.56544 2.44839 6.41509 2.12079 7.34015C1.79319 8.2652 1.65514 9.24673 1.71486 10.2263C1.77458 11.2058 2.03086 12.1633 2.46841 13.0417L1.7306 15.6264C1.67563 15.8192 1.6732 16.0232 1.72355 16.2173C1.77391 16.4114 1.87522 16.5885 2.017 16.7303C2.15879 16.8721 2.33589 16.9734 2.52998 17.0237C2.72406 17.0741 2.92808 17.0717 3.12091 17.0167L5.70466 16.2789C6.49569 16.6796 7.35374 16.9313 8.23591 17.0214C8.61819 17.9545 9.18933 18.7984 9.91343 19.5002C10.6375 20.202 11.499 20.7464 12.4436 21.0993C13.3882 21.4522 14.3956 21.6059 15.4025 21.5507C16.4093 21.4956 17.3939 21.2328 18.2943 20.7789L20.879 21.5167C21.0719 21.5717 21.2759 21.5741 21.47 21.5237C21.6641 21.4734 21.8412 21.3721 21.9829 21.2303C22.1247 21.0885 22.226 20.9114 22.2764 20.7173C22.3268 20.5232 22.3243 20.3192 22.2694 20.1264L21.5297 17.5417ZM6.03748 15.1858C5.90759 15.1149 5.75501 15.098 5.61279 15.1389L2.81154 15.9358L3.61123 13.1354C3.65207 12.9932 3.63522 12.8406 3.56435 12.7108C3.18389 11.9912 2.94912 11.2037 2.87349 10.3934C2.79786 9.58297 2.88286 8.76563 3.12361 7.98815C3.36436 7.21066 3.75614 6.48832 4.27651 5.86248C4.79687 5.23665 5.43559 4.71963 6.15609 4.34104C6.87658 3.96245 7.66469 3.72973 8.47527 3.6562C9.28585 3.58268 10.103 3.6698 10.8798 3.91257C11.6567 4.15534 12.378 4.54899 13.0025 5.07098C13.627 5.59297 14.1423 6.23303 14.519 6.9545C13.4672 7.02295 12.4427 7.3182 11.5158 7.81999C10.5888 8.32177 9.78146 9.01821 9.1491 9.86148C8.51673 10.7048 8.07434 11.6749 7.85231 12.7053C7.63027 13.7357 7.63385 14.8019 7.86279 15.8308C7.22381 15.7146 6.60757 15.4968 6.03748 15.1858ZM20.3859 17.6383L21.1865 20.4358L18.3862 19.6361C18.244 19.5952 18.0914 19.6121 17.9615 19.6829C16.6546 20.3942 15.1352 20.6106 13.6816 20.2926C12.2281 19.9747 10.9378 19.1436 10.0472 17.9516C9.15664 16.7597 8.72538 15.2868 8.83247 13.8027C8.93957 12.3187 9.57785 10.9229 10.6304 9.8712C11.6829 8.81949 13.0791 8.18227 14.5632 8.0763C16.0474 7.97033 17.52 8.4027 18.7112 9.2942C19.9025 10.1857 20.7326 11.4766 21.0495 12.9304C21.3664 14.3842 21.1487 15.9034 20.4365 17.2098C20.3644 17.3392 20.3462 17.4918 20.3859 17.6345V17.6383ZM13.3115 13.1233C13.3115 13.3087 13.2566 13.4899 13.1535 13.6441C13.0505 13.7983 12.9041 13.9184 12.7328 13.9894C12.5615 14.0603 12.373 14.0789 12.1911 14.0427C12.0093 14.0066 11.8422 13.9173 11.7111 13.7862C11.58 13.6551 11.4907 13.488 11.4546 13.3062C11.4184 13.1243 11.4369 12.9358 11.5079 12.7645C11.5789 12.5932 11.699 12.4468 11.8532 12.3438C12.0074 12.2407 12.1886 12.1858 12.374 12.1858C12.6227 12.1858 12.8611 12.2845 13.037 12.4603C13.2128 12.6362 13.3115 12.8746 13.3115 13.1233ZM18.5615 13.1233C18.5615 13.3087 18.5066 13.4899 18.4035 13.6441C18.3005 13.7983 18.1541 13.9184 17.9828 13.9894C17.8115 14.0603 17.623 14.0789 17.4411 14.0427C17.2593 14.0066 17.0922 13.9173 16.9611 13.7862C16.83 13.6551 16.7407 13.488 16.7046 13.3062C16.6684 13.1243 16.6869 12.9358 16.7579 12.7645C16.8289 12.5932 16.949 12.4468 17.1032 12.3438C17.2574 12.2407 17.4386 12.1858 17.624 12.1858C17.8727 12.1858 18.1111 12.2845 18.287 12.4603C18.4628 12.6362 18.5615 12.8746 18.5615 13.1233Z" fill="#7A0000"/>
</svg>
